<svg width="33" height="34" viewBox="0 0 33 34" fill="none" xmlns="http://www.w3.org/2000/svg">
<path d="M0.661133 0.772461H13.7959V33.9512H0.661133V0.772461ZM17.8486 9.80566C17.8486 6.20866 18.7601 3.79167 20.583 2.55469C22.3083 1.39909 25.5553 0.821289 30.3242 0.821289H32.79V5.43555C32.79 9.11393 31.8542 11.7344 29.9824 13.2969C28.0781 14.8594 24.7985 15.6406 20.1436 15.6406H17.8486V9.80566ZM17.8486 18.1797H20.1436C24.7334 18.1797 28.013 19.0911 29.9824 20.9141C31.8542 22.6556 32.79 25.4062 32.79 29.166V34H30.3242C25.653 34 22.4059 33.3001 20.583 31.9004C18.7601 30.4844 17.8486 27.9453 17.8486 24.2832V18.1797Z" />
</svg>
