<?xml version="1.0" encoding="UTF-8"?>
<svg width="64px" height="63px" viewBox="0 0 64 63" version="1.1" xmlns="http://www.w3.org/2000/svg" xmlns:xlink="http://www.w3.org/1999/xlink">
    <!-- Generator: Sketch 53.2 (72643) - https://sketchapp.com -->
    <title>safari-logo</title>
    <desc>Created with Sketch.</desc>
    <defs>
        <linearGradient x1="50.0000025%" y1="99.9999944%" x2="50.0000025%" y2="-1.55366353e-06%" id="linearGradient-1">
            <stop stop-color="#BDBDBD" offset="0%"></stop>
            <stop stop-color="#FFFFFF" offset="100%"></stop>
        </linearGradient>
        <radialGradient cx="50.2275914%" cy="42.7100503%" fx="50.2275914%" fy="42.7100503%" r="54.251307%" id="radialGradient-2">
            <stop stop-color="#06C2E7" offset="0%"></stop>
            <stop stop-color="#0DB8EC" offset="25.000015%"></stop>
            <stop stop-color="#12AEF1" offset="50.00003%"></stop>
            <stop stop-color="#1F86F9" offset="75.000012%"></stop>
            <stop stop-color="#107DDD" offset="100%"></stop>
        </radialGradient>
    </defs>
    <g id="Page-1" stroke="none" stroke-width="1" fill="none" fill-rule="evenodd">
        <g id="safari-logo" fill-rule="nonzero">
            <path d="M62.2589425,33.9467136 C62.2589429,41.6532578 59.0796927,49.0441622 53.4205908,54.4935118 C47.7614888,59.9428615 40.0860993,63.004274 32.0829205,63.0042736 C24.0797423,63.0042732 16.4043537,59.9428602 10.7452525,54.4935106 C5.08615122,49.0441611 1.9069015,41.6532573 1.90690195,33.9467136 C1.90690195,17.898668 15.4171654,4.88915623 32.0829205,4.88915533 C40.086099,4.8891549 47.7614883,7.95056724 53.4205902,13.3999165 C59.0796921,18.8492658 62.2589425,26.2401697 62.2589425,33.9467136 Z" id="path2226" fill="#000000" opacity="0.52999998"></path>
            <path d="M63.40811,31.3817 C63.4081105,39.6896571 60.1077877,47.6573421 54.2331749,53.5319549 C48.3585621,59.4065677 40.3908771,62.7068905 32.08292,62.70689 C14.7824987,62.7068856 0.757738895,48.6821213 0.75774,31.3817 C0.757738895,14.0812787 14.7824987,0.0565144183 32.08292,0.05651 C40.3908771,0.0565094696 48.3585621,3.35683234 54.2331749,9.23144514 C60.1077877,15.1060579 63.4081105,23.0737429 63.40811,31.3817 L63.40811,31.3817 Z" id="path826" stroke="#CDCDCD" stroke-width="0.09301235" fill="url(#linearGradient-1)" stroke-linecap="round" stroke-linejoin="round"></path>
            <path d="M60.95349,31.3817 C60.9534894,47.3264753 48.0276953,60.2522694 32.08292,60.25227 C16.1381447,60.2522694 3.21235055,47.3264753 3.21235,31.3817 C3.21235055,15.4369247 16.1381447,2.51113055 32.08292,2.51113 C48.0276953,2.51113055 60.9534894,15.4369247 60.95349,31.3817 L60.95349,31.3817 Z" id="circle828" fill="url(#radialGradient-2)"></path>
            <path d="M32.08292,4.01671 C31.84973,4.01671 31.662,4.20443 31.662,4.43763 L31.662,9.2928 C31.662,9.526 31.84973,9.71372 32.08292,9.71372 C32.31612,9.71372 32.50384,9.526 32.50384,9.2928 L32.50384,4.43763 C32.50384,4.20443 32.31612,4.01671 32.08292,4.01671 Z M29.32925,4.19075 C29.30135,4.18775 29.27265,4.18775 29.24365,4.1911 C29.01171,4.2153 28.84448,4.4215 28.8687,4.65344 L29.08088,6.68463 C29.10508,6.91657 29.31129,7.08381 29.54321,7.05959 C29.77516,7.03539 29.9424,6.82919 29.91817,6.59725 L29.70617,4.56607 C29.68497,4.36312 29.5244,4.2097 29.32922,4.19075 L29.32925,4.19075 Z M34.85585,4.19275 C34.66066,4.21155 34.50007,4.36496 34.47871,4.56788 L34.26508,6.5989 C34.24068,6.83082 34.40793,7.03721 34.63986,7.0616 C34.87177,7.086 35.07797,6.91892 35.10237,6.687 L35.31601,4.65581 C35.34041,4.42389 35.17315,4.21767 34.94123,4.19329 C34.91223,4.19029 34.88373,4.19029 34.85583,4.19277 L34.85585,4.19275 Z M26.50055,4.60095 C26.47255,4.60117 26.44405,4.60395 26.41555,4.60995 C26.18741,4.65825 26.04261,4.88084 26.09091,5.10898 L27.09643,9.85879 C27.14473,10.08693 27.36731,10.23172 27.59545,10.18343 C27.82359,10.13513 27.96839,9.91271 27.9201,9.68457 L26.91458,4.93459 C26.87228,4.73496 26.69666,4.59916 26.50057,4.60069 L26.50055,4.60095 Z M37.68437,4.60495 C37.48828,4.60295 37.31257,4.73889 37.27018,4.93848 L36.26121,9.68773 C36.21271,9.91584 36.35741,10.13849 36.58548,10.18695 C36.81359,10.23545 37.03624,10.09075 37.08469,9.86267 L38.09366,5.11341 C38.14216,4.88531 37.99746,4.66265 37.76939,4.6142 C37.74089,4.6082 37.71239,4.6052 37.68439,4.6052 L37.68437,4.60495 Z M23.801,5.36212 C23.7465,5.35712 23.69023,5.36312 23.63478,5.38152 C23.413,5.45362 23.2924,5.69002 23.36447,5.9118 L23.99557,7.85416 C24.06767,8.07595 24.30425,8.19654 24.52603,8.12448 C24.74782,8.05238 24.86823,7.8158 24.79616,7.59402 L24.16507,5.65166 C24.11107,5.48532 23.96448,5.37598 23.801,5.36208 L23.801,5.36212 Z M40.36865,5.36312 C40.20517,5.37702 40.05866,5.48636 40.00459,5.65269 L39.37312,7.59487 C39.30102,7.81664 39.42152,8.05324 39.64326,8.12533 C39.86504,8.19743 40.10163,8.07693 40.17373,7.8552 L40.80519,5.91284 C40.87729,5.69106 40.75679,5.45447 40.53505,5.38238 C40.47965,5.36438 40.42314,5.35848 40.36865,5.36308 L40.36865,5.36312 Z M21.13144,6.33902 C21.07674,6.34002 21.0214,6.35202 20.96813,6.37572 C20.75515,6.47042 20.65977,6.71816 20.75449,6.93125 L22.72646,11.36787 C22.82116,11.58095 23.0689,11.67623 23.28199,11.58151 C23.49497,11.48681 23.59053,11.23907 23.49581,11.02598 L21.52365,6.58936 C21.45265,6.42953 21.29548,6.33585 21.13144,6.33903 L21.13144,6.33902 Z M43.06837,6.35392 C42.90434,6.35092 42.74705,6.44402 42.6758,6.60371 L40.69782,11.03761 C40.60282,11.25057 40.69778,11.49849 40.91074,11.5935 C41.12371,11.6885 41.37162,11.59355 41.46664,11.38059 L43.4446,6.9467 C43.5396,6.73373 43.44465,6.48581 43.23169,6.3908 C43.17849,6.3671 43.12305,6.3551 43.06837,6.3539 L43.06837,6.35392 Z M18.65353,7.6501 C18.57273,7.6441 18.48947,7.6621 18.41374,7.7059 C18.21178,7.8225 18.14309,8.07892 18.25968,8.28087 L19.28083,10.04956 C19.39743,10.25152 19.65383,10.32021 19.85579,10.20361 C20.05774,10.08701 20.12644,9.8306 20.00985,9.62864 L18.9887,7.85996 C18.9158,7.73373 18.78823,7.65955 18.65353,7.65013 L18.65353,7.6501 Z M45.5123,7.6501 C45.37762,7.6591 45.25019,7.7337 45.17732,7.85993 L44.15599,9.62861 C44.03939,9.83057 44.10829,10.08698 44.31023,10.20358 C44.51219,10.32018 44.7686,10.25148 44.8852,10.04953 L45.90634,8.28084 C46.02294,8.07889 45.95424,7.82247 45.75228,7.70587 C45.67658,7.66217 45.59312,7.64447 45.5123,7.65007 L45.5123,7.6501 Z M16.24739,9.15083 C16.16639,9.15383 16.08528,9.17983 16.01449,9.23113 C15.82574,9.36806 15.78401,9.63024 15.92099,9.819 L18.77185,13.74895 C18.90878,13.93771 19.17114,13.97944 19.3599,13.84255 C19.54866,13.70562 19.59039,13.44344 19.4534,13.25468 L16.60236,9.32473 C16.51676,9.20675 16.38232,9.14626 16.24739,9.15087 L16.24739,9.15083 Z M47.94861,9.17223 C47.81368,9.16723 47.6792,9.22773 47.59345,9.34554 L44.73715,13.27168 C44.59995,13.46025 44.64135,13.72254 44.82995,13.85973 C45.01853,13.99691 45.28082,13.95563 45.41801,13.76713 L48.27414,9.84099 C48.41132,9.65241 48.36984,9.39013 48.18134,9.25294 C48.11064,9.20154 48.02958,9.17514 47.94862,9.17224 L47.94861,9.17223 Z M14.09665,10.95454 C13.98921,10.94854 13.87957,10.98444 13.79291,11.06245 C13.61959,11.21847 13.60566,11.48354 13.76171,11.65686 L15.12819,13.17485 C15.2842,13.34817 15.54928,13.36211 15.7226,13.20605 C15.89592,13.05003 15.90986,12.78478 15.7538,12.61146 L14.3875,11.09365 C14.3095,11.00695 14.20411,10.96014 14.09665,10.95449 L14.09665,10.95454 Z M50.07227,10.95754 C49.96482,10.96354 49.85945,11.01004 49.78143,11.09669 L48.41495,12.61432 C48.25889,12.78762 48.27271,13.05287 48.44605,13.20891 C48.61934,13.36495 48.88442,13.35096 49.04046,13.17771 L50.40712,11.66009 C50.56317,11.48678 50.54917,11.22153 50.37592,11.0655 C50.28922,10.9875 50.17981,10.95196 50.07235,10.95759 L50.07227,10.95754 Z M12.03531,12.93459 C11.92786,12.94059 11.82265,12.98709 11.74464,13.07375 C11.58862,13.24707 11.60257,13.51214 11.77584,13.66816 L15.38425,16.9165 C15.55757,17.07253 15.82264,17.05857 15.97865,16.8853 C16.13468,16.71199 16.12091,16.44691 15.94755,16.29089 L12.33897,13.04255 C12.25227,12.96455 12.14267,12.92899 12.03521,12.93464 L12.03531,12.93459 Z M52.14362,12.94879 C52.03617,12.94279 51.9264,12.97859 51.83969,13.05652 L48.2291,16.30233 C48.05568,16.45822 48.04142,16.7233 48.1973,16.89673 C48.3532,17.07015 48.61847,17.08424 48.79189,16.92833 L52.40266,13.68253 C52.57608,13.52663 52.59016,13.26155 52.43426,13.08812 C52.35626,13.00142 52.25104,12.95451 52.1436,12.94879 L52.14362,12.94879 Z M10.32112,15.13877 C10.18618,15.13377 10.05163,15.19457 9.96597,15.31244 C9.8289,15.5011 9.87047,15.76324 10.05917,15.90031 L11.71141,17.10075 C11.90007,17.23783 12.1622,17.19645 12.29927,17.00775 C12.43635,16.81909 12.39487,16.55677 12.20627,16.4197 L10.55403,15.21926 C10.48333,15.16786 10.4021,15.14166 10.32114,15.13876 L10.32112,15.13877 Z M53.85617,15.15407 C53.77517,15.15707 53.69406,15.18297 53.62328,15.23437 L51.97031,16.43373 C51.78156,16.57067 51.73981,16.83302 51.87671,17.02178 C52.01366,17.21053 52.27583,17.25209 52.46458,17.11518 L54.11774,15.91583 C54.30649,15.77889 54.34805,15.51671 54.21114,15.32796 C54.12554,15.20999 53.9911,15.14949 53.85617,15.15411 L53.85617,15.15407 Z M8.7192,17.48992 C8.58451,17.49892 8.45709,17.57352 8.38421,17.69974 C8.26761,17.90169 8.33631,18.15811 8.53826,18.27471 L12.74289,20.70229 C12.94484,20.81889 13.20126,20.75019 13.31786,20.54824 C13.43446,20.34629 13.36576,20.08987 13.16381,19.97327 L8.95918,17.54568 C8.88348,17.50198 8.80001,17.48428 8.7192,17.48988 L8.7192,17.48992 Z M55.44664,17.48992 C55.36584,17.48392 55.28239,17.50192 55.20666,17.54572 L51.00203,19.97331 C50.80008,20.08991 50.73138,20.34633 50.84798,20.54828 C50.96458,20.75023 51.221,20.81893 51.42295,20.70233 L55.62777,18.27475 C55.82972,18.15815 55.89841,17.90173 55.78181,17.69978 C55.70891,17.57356 55.58133,17.49937 55.44664,17.48996 L55.44664,17.48992 Z M7.50804,19.99598 C7.34401,19.99198 7.18671,20.08588 7.11546,20.24558 C7.02046,20.45856 7.1154,20.70649 7.32838,20.80148 L9.1937,21.6335 C9.40668,21.7285 9.65461,21.63357 9.7496,21.4206 C9.8446,21.20762 9.74948,20.95969 9.53651,20.8647 L7.67136,20.03268 C7.61816,20.00888 7.56271,19.99708 7.50804,19.99598 L7.50804,19.99598 Z M56.66598,20.01328 C56.61128,20.01428 56.55574,20.02628 56.50247,20.04998 L54.63678,20.88055 C54.42374,20.97545 54.32848,21.22322 54.42332,21.43626 C54.51822,21.6493 54.76618,21.74456 54.97922,21.64972 L56.84492,20.81896 C57.05795,20.72416 57.15303,20.47629 57.05819,20.26325 C56.98709,20.10347 56.83001,20.01002 56.66598,20.01328 L56.66598,20.01328 Z M6.42859,22.61527 C6.2651,22.62897 6.11853,22.73818 6.06435,22.90448 C5.99215,23.1262 6.11235,23.36287 6.33412,23.43512 L10.95041,24.9393 C11.17212,25.0115 11.4088,24.8912 11.48105,24.66953 C11.55325,24.44781 11.43305,24.21113 11.21128,24.13889 L6.595,22.6347 C6.5396,22.6166 6.48308,22.6107 6.42859,22.6153 L6.42859,22.61527 Z M57.74343,22.63327 C57.68893,22.62827 57.63265,22.63427 57.5772,22.65267 L52.95984,24.15359 C52.73806,24.22569 52.61761,24.46228 52.6897,24.68405 C52.7618,24.90582 52.99838,25.02628 53.22016,24.95419 L57.83735,23.45327 C58.05913,23.38117 58.17975,23.14458 58.10767,22.92281 C58.05357,22.75648 57.9069,22.64711 57.74343,22.63324 L57.74343,22.63327 Z M5.75607,25.36479 C5.55997,25.36279 5.38411,25.49891 5.34169,25.6985 C5.29319,25.9266 5.43789,26.14923 5.66596,26.19772 L7.66373,26.62227 C7.89183,26.67077 8.11445,26.52607 8.16294,26.298 C8.21144,26.06989 8.06674,25.84726 7.83867,25.79878 L5.84108,25.37423 C5.81258,25.36823 5.78408,25.36523 5.75608,25.36523 L5.75607,25.36479 Z M58.41069,25.36879 C58.38269,25.36902 58.35439,25.37279 58.32589,25.37779 L56.32811,25.80216 C56.10001,25.85066 55.9554,26.07309 56.00385,26.3012 C56.05235,26.5293 56.27495,26.6741 56.50306,26.62565 L58.50065,26.20128 C58.72875,26.15278 58.87355,25.93017 58.8251,25.70206 C58.7827,25.50247 58.60681,25.36669 58.41073,25.36835 L58.41069,25.36879 Z M5.24704,28.13046 C5.05184,28.14916 4.89117,28.30231 4.86973,28.50523 C4.84523,28.73713 5.01205,28.94361 5.24395,28.96811 L10.07224,29.47859 C10.30414,29.50309 10.51062,29.33609 10.53512,29.10418 C10.55962,28.87228 10.39262,28.6658 10.16071,28.6413 L5.33243,28.13082 C5.30343,28.12782 5.27493,28.12782 5.24703,28.13047 L5.24704,28.13046 Z M58.92334,28.16676 C58.89544,28.16376 58.86674,28.16376 58.83774,28.16711 L54.00891,28.67105 C53.77697,28.69525 53.60977,28.90145 53.63395,29.13338 C53.65815,29.36532 53.86435,29.53256 54.09629,29.50834 L58.92512,29.0044 C59.15705,28.9802 59.32426,28.774 59.30008,28.54206 C59.27888,28.33912 59.11848,28.18572 58.9233,28.16674 L58.92334,28.16676 Z M5.16529,30.96149 C4.93209,30.96149 4.74438,31.14921 4.74438,31.38241 C4.74438,31.6156 4.93209,31.80332 5.16529,31.80332 L7.20757,31.80332 C7.44076,31.80332 7.62867,31.6156 7.62867,31.38241 C7.62867,31.14921 7.44076,30.96149 7.20757,30.96149 L5.16529,30.96149 Z M56.95827,30.96149 C56.72508,30.96149 56.53735,31.14921 56.53735,31.38241 C56.53736,31.6156 56.72508,31.80332 56.95827,31.80332 L59.00055,31.80332 C59.23374,31.80332 59.42147,31.6156 59.42147,31.38241 C59.42147,31.14921 59.23374,30.96149 59.00055,30.96149 L56.95827,30.96149 Z M10.15508,33.2561 C10.12718,33.2531 10.09868,33.2531 10.06968,33.25645 L5.24066,33.76039 C5.00872,33.78459 4.84153,33.99079 4.86571,34.22272 C4.88991,34.45466 5.09611,34.6219 5.32804,34.59768 L10.15706,34.09374 C10.389,34.06954 10.55619,33.86334 10.53201,33.6314 C10.51081,33.42846 10.35024,33.27506 10.15506,33.25609 L10.15508,33.2561 Z M54.00822,33.2859 C53.81301,33.3046 53.65234,33.45776 53.6309,33.66068 C53.6064,33.89258 53.77323,34.09906 54.00513,34.12356 L58.83342,34.63404 C59.06533,34.65854 59.27179,34.49153 59.2963,34.25963 C59.3208,34.02773 59.15379,33.82125 58.92189,33.79675 L54.09379,33.28627 C54.06479,33.28327 54.03609,33.28327 54.00819,33.28592 L54.00822,33.2859 Z M7.74802,36.1295 C7.72002,36.12974 7.69152,36.1325 7.66302,36.1385 L5.66525,36.56286 C5.43714,36.61136 5.29254,36.83397 5.34098,37.06208 C5.38948,37.29019 5.61209,37.4348 5.8402,37.38635 L7.83797,36.96216 C8.06607,36.91366 8.21068,36.69105 8.16223,36.46295 C8.11983,36.26335 7.94413,36.12758 7.74804,36.12923 L7.74802,36.1295 Z M56.41727,36.1335 C56.22118,36.1315 56.0455,36.26744 56.00308,36.46703 C55.95458,36.69513 56.09908,36.91777 56.32717,36.96625 L58.32494,37.3908 C58.55303,37.4393 58.77567,37.2948 58.82415,37.06671 C58.87265,36.83861 58.72795,36.61579 58.49989,36.56731 L56.50229,36.14276 C56.47379,36.13676 56.44529,36.13376 56.41729,36.13376 L56.41727,36.1335 Z M11.11208,37.79137 C11.05758,37.78637 11.00131,37.79237 10.94586,37.81077 L6.3285,39.31168 C6.10672,39.38378 5.98627,39.62037 6.05836,39.84214 C6.13046,40.06392 6.36704,40.18436 6.58882,40.11228 L11.20601,38.61136 C11.42779,38.53926 11.54842,38.30267 11.47633,38.0809 C11.42223,37.91457 11.27556,37.8052 11.11208,37.79133 L11.11208,37.79137 Z M53.04921,37.80627 C52.88572,37.81997 52.73916,37.92919 52.68498,38.09548 C52.61278,38.31721 52.73298,38.55388 52.95475,38.62613 L57.57103,40.13031 C57.79275,40.20251 58.02943,40.08221 58.10167,39.86054 C58.17397,39.63882 58.05367,39.40214 57.8319,39.32989 L53.21562,37.82571 C53.16022,37.80761 53.10371,37.80171 53.04921,37.80631 L53.04921,37.80627 Z M9.35012,41.07878 C9.29542,41.07978 9.24006,41.09158 9.1868,41.11528 L7.32093,41.94603 C7.10789,42.04083 7.01281,42.2887 7.10765,42.50174 C7.20255,42.71478 7.45033,42.80986 7.66336,42.71502 L9.52925,41.88444 C9.74228,41.78964 9.83736,41.54177 9.74252,41.32873 C9.67142,41.16895 9.51415,41.0755 9.35012,41.07876 L9.35012,41.07878 Z M54.809,41.09478 C54.64497,41.09078 54.48767,41.18468 54.41642,41.34439 C54.32142,41.55736 54.41636,41.80529 54.62933,41.90028 L56.49448,42.7323 C56.70745,42.8273 56.95539,42.73236 57.05038,42.51939 C57.14538,42.30642 57.05044,42.05849 56.83747,41.9635 L54.97232,41.13147 C54.91912,41.10767 54.86368,41.09587 54.809,41.09477 L54.809,41.09478 Z M12.98287,42.00692 C12.90207,42.00092 12.81863,42.01892 12.74289,42.06272 L8.53826,44.4903 C8.33631,44.6069 8.26761,44.86332 8.38421,45.06527 C8.50081,45.26722 8.75723,45.33592 8.95918,45.21932 L13.16381,42.79192 C13.36576,42.67532 13.43445,42.41872 13.31786,42.21677 C13.24496,42.09055 13.11756,42.01636 12.98287,42.00695 L12.98287,42.00692 Z M51.18315,42.00692 C51.04846,42.01592 50.92086,42.09052 50.84798,42.21674 C50.73138,42.41869 50.80008,42.67529 51.00203,42.79189 L55.20666,45.21929 C55.40862,45.33589 55.66521,45.26719 55.78181,45.06524 C55.89841,44.86329 55.82971,44.60687 55.62777,44.49027 L51.42295,42.06269 C51.34725,42.01899 51.26396,42.00129 51.18315,42.00689 L51.18315,42.00692 Z M11.93412,45.56936 C11.85312,45.57236 11.77201,45.59846 11.70122,45.64986 L10.04826,46.84921 C9.85951,46.98615 9.81776,47.24833 9.95466,47.43708 C10.09161,47.62583 10.35378,47.66758 10.54253,47.53058 L12.19567,46.33123 C12.38444,46.1943 12.42618,45.93212 12.28927,45.74337 C12.20367,45.6254 12.06905,45.56471 11.93411,45.56933 L11.93412,45.56936 Z M52.22173,45.58356 C52.08679,45.57856 51.95225,45.63936 51.86658,45.75723 C51.7295,45.94588 51.77108,46.20821 51.95978,46.34528 L53.61202,47.54572 C53.80068,47.68279 54.06282,47.64122 54.19989,47.45252 C54.33696,47.26386 54.29549,47.00172 54.10689,46.86465 L52.45465,45.66421 C52.38395,45.61281 52.30272,45.58641 52.22176,45.58351 L52.22173,45.58356 Z M15.67786,45.72889 C15.57043,45.72289 15.46084,45.75869 15.37412,45.83662 L11.76336,49.08242 C11.58994,49.23831 11.57585,49.5034 11.73176,49.67683 C11.88765,49.85025 12.15273,49.86433 12.32616,49.70843 L15.93693,46.46263 C16.11035,46.30674 16.12444,46.04165 15.96853,45.86822 C15.89063,45.78152 15.78531,45.73461 15.67786,45.72889 Z M48.47798,45.74049 C48.37053,45.74649 48.26515,45.79299 48.18714,45.87964 C48.03111,46.05296 48.04507,46.31803 48.21834,46.47405 L51.82675,49.72239 C52.00007,49.87843 52.26532,49.86447 52.42134,49.69119 C52.57737,49.51788 52.56341,49.2528 52.39014,49.09679 L48.78154,45.84844 C48.69484,45.77044 48.58543,45.73489 48.47798,45.74053 L48.47798,45.74049 Z M19.10334,48.82407 C18.96841,48.81907 18.83374,48.87947 18.748,48.99737 L15.89187,52.92351 C15.75468,53.11209 15.79597,53.37438 15.98447,53.51156 C16.17304,53.64875 16.43534,53.60746 16.57252,53.41886 L19.42865,49.49272 C19.56583,49.30415 19.52455,49.04186 19.33605,48.90467 C19.26535,48.85327 19.1843,48.82687 19.10334,48.82407 Z M45.03907,48.84167 C44.95807,48.84467 44.87696,48.87057 44.80617,48.92197 C44.61742,49.05891 44.57569,49.32108 44.71257,49.50984 L47.56343,53.43979 C47.70036,53.62855 47.96254,53.67029 48.1513,53.53339 C48.34006,53.39646 48.38179,53.13429 48.2449,52.94553 L45.39404,49.01557 C45.30844,48.8976 45.174,48.83711 45.03906,48.84172 L45.03907,48.84167 Z M15.41627,49.44807 C15.30882,49.45407 15.20345,49.50057 15.12543,49.58722 L13.75894,51.10485 C13.60289,51.27815 13.61671,51.5434 13.79004,51.69944 C13.96334,51.85548 14.22841,51.84149 14.38444,51.66814 L15.7511,50.15052 C15.90716,49.97722 15.89316,49.71196 15.7199,49.55593 C15.6332,49.47793 15.52379,49.44239 15.41633,49.44802 L15.41627,49.44807 Z M48.74703,49.45007 C48.63958,49.44407 48.53012,49.47997 48.44347,49.55798 C48.27014,49.71398 48.25621,49.97906 48.41217,50.15238 L49.77847,51.67037 C49.93449,51.8437 50.19956,51.85763 50.37289,51.70157 C50.54621,51.54556 50.56015,51.28031 50.40409,51.10698 L49.03778,49.58918 C48.95978,49.50248 48.85439,49.45567 48.74694,49.45002 L48.74703,49.45007 Z M23.09179,51.13373 C22.92776,51.12973 22.77065,51.22363 22.6994,51.38334 L20.72124,55.81723 C20.62624,56.0302 20.72119,56.27812 20.93416,56.37313 C21.14712,56.46813 21.39505,56.37318 21.49005,56.16022 L23.4682,51.72632 C23.5632,51.51336 23.46825,51.26543 23.25528,51.17043 C23.20208,51.14663 23.14647,51.13483 23.09179,51.13373 Z M41.04735,51.14593 C40.99265,51.14693 40.93712,51.15873 40.88385,51.18243 C40.67088,51.27713 40.57549,51.52487 40.67022,51.73796 L42.64218,56.17458 C42.73688,56.38755 42.9848,56.48294 43.19789,56.38822 C43.41087,56.29352 43.50625,56.04578 43.41153,55.83269 L41.43956,51.39607 C41.36856,51.23634 41.21138,51.14278 41.04735,51.14592 L41.04735,51.14593 Z M19.61581,52.5046 C19.48113,52.5136 19.35369,52.5882 19.28083,52.71442 L18.25968,54.48311 C18.14309,54.68506 18.21178,54.94148 18.41374,55.05808 C18.61569,55.17468 18.87211,55.10598 18.9887,54.90403 L20.00985,53.13534 C20.12644,52.93339 20.05775,52.67697 19.85579,52.56037 C19.78009,52.51667 19.69663,52.49897 19.61581,52.50457 L19.61581,52.5046 Z M44.55002,52.5046 C44.46922,52.4986 44.38596,52.5167 44.31023,52.5604 C44.10828,52.677 44.03958,52.93342 44.15618,53.13537 L45.17732,54.90406 C45.29392,55.10601 45.55034,55.1747 45.75228,55.05811 C45.95424,54.94151 46.02294,54.68509 45.90634,54.48314 L44.8852,52.71445 C44.8123,52.58823 44.68471,52.51404 44.55002,52.50463 L44.55002,52.5046 Z M27.49552,52.568 C27.29943,52.566 27.12372,52.70194 27.08133,52.90154 L26.07236,57.6508 C26.02386,57.8789 26.16856,58.10156 26.39663,58.15001 C26.62474,58.19851 26.84739,58.05381 26.89585,57.82574 L27.90481,53.07648 C27.95331,52.84838 27.80861,52.62572 27.58054,52.57727 C27.55204,52.57127 27.52354,52.56827 27.49554,52.56827 L27.49552,52.568 Z M36.65542,52.571 C36.62742,52.57122 36.59912,52.574 36.57062,52.58 C36.34248,52.6283 36.19768,52.85071 36.24597,53.07885 L37.2515,57.82884 C37.2998,58.05698 37.52238,58.20177 37.75053,58.15348 C37.97867,58.10518 38.12346,57.88259 38.07517,57.65445 L37.06947,52.9048 C37.02717,52.70517 36.85154,52.56937 36.65545,52.57089 L36.65542,52.571 Z M32.08292,53.05005 C31.84973,53.05005 31.662,53.23777 31.662,53.47097 L31.662,58.32614 C31.662,58.55934 31.84973,58.74706 32.08292,58.74706 C32.31612,58.74706 32.50384,58.55934 32.50384,58.32614 L32.50384,53.47097 C32.50384,53.23777 32.31612,53.05005 32.08292,53.05005 Z M24.35635,54.61891 C24.19288,54.63281 24.04618,54.74215 23.99212,54.90848 L23.36083,56.85084 C23.28873,57.07262 23.40923,57.30921 23.63097,57.38131 C23.85274,57.45341 24.08933,57.33271 24.16143,57.11099 L24.79271,55.16881 C24.86481,54.94704 24.74431,54.71045 24.52258,54.63835 C24.46718,54.62035 24.41085,54.61435 24.35635,54.61895 L24.35635,54.61891 Z M39.80622,54.61991 C39.75172,54.61491 39.69544,54.62091 39.64,54.63921 C39.41822,54.71131 39.29762,54.94789 39.36967,55.16968 L40.00078,57.11203 C40.07288,57.33382 40.30946,57.45423 40.53124,57.38217 C40.75302,57.31007 40.87362,57.07367 40.80156,56.85189 L40.17028,54.90953 C40.11618,54.74319 39.9697,54.63385 39.80622,54.61996 L39.80622,54.61991 Z M29.44079,55.70172 C29.24559,55.72052 29.08479,55.87375 29.06347,56.07668 L28.85001,58.10787 C28.82561,58.33979 28.99269,58.54599 29.22461,58.57039 C29.45653,58.59479 29.66291,58.42771 29.68731,58.19579 L29.90076,56.16478 C29.92516,55.93286 29.75808,55.72648 29.52618,55.70208 C29.49718,55.69908 29.46868,55.69908 29.44078,55.70173 L29.44079,55.70172 Z M34.70815,55.70372 C34.68025,55.70072 34.65155,55.70072 34.62255,55.70407 C34.39062,55.72827 34.22338,55.93447 34.2476,56.1664 L34.45978,58.19778 C34.48398,58.42971 34.69018,58.59678 34.92212,58.57256 C35.15405,58.54836 35.3213,58.34215 35.29708,58.11022 L35.08508,56.07903 C35.06388,55.87608 34.9033,55.72266 34.70811,55.7037 L34.70815,55.70372 Z" id="rect830" fill="#F4F2F3"></path>
            <polygon id="path2150" fill="#000000" opacity="0.40900005" points="51.811927 14.5451901 28.7825203 27.9253427 14.2216938 50.8482285 35.5230113 35.070579"></polygon>
            <g id="g2847" transform="translate(11.114380, 11.404990)">
                <polygon id="path2096" fill="#FF5150" transform="translate(25.219470, 15.917506) rotate(29.135544) translate(-25.219470, -15.917506) " points="30.5303657 27.3608906 13.7760887 10.6066137 36.6628507 4.47412137"></polygon>
                <polygon id="path2099" fill="#F1F1F1" transform="translate(16.717609, 24.035909) scale(-1, 1) rotate(60.864456) translate(-16.717609, -24.035909) " points="22.0285046 35.4792935 5.27422766 18.7250165 28.1609896 12.5925242"></polygon>
                <polygon id="path2112" fill="#000000" opacity="0.243" points="0.85294 39.18507 24.26901 23.43306 41.08414 0.76834"></polygon>
            </g>
        </g>
    </g>
</svg>